<svg width="68" height="68" viewBox="0 0 68 68" fill="none" xmlns="http://www.w3.org/2000/svg">
<g filter="url(#filter0_dd_853_2067)">
<rect x="8" y="8" width="52" height="52" rx="26" fill="white" shape-rendering="crispEdges"/>
<path d="M35.8982 32.1022C36.2913 32.4953 36.6024 32.9626 36.8152 33.4762C37.0279 33.9898 37.1375 34.5404 37.1375 35.0963C37.1374 35.6521 37.0279 36.2029 36.8152 36.7164C36.6025 37.2298 36.2911 37.6965 35.8982 38.0895L31.8777 42.109C31.4845 42.502 31.0182 42.8144 30.5046 43.027C29.991 43.2396 29.4404 43.3483 28.8845 43.3483C27.7618 43.3481 26.6851 42.902 25.8914 42.108C25.0976 41.314 24.6519 40.2367 24.6521 39.1139C24.6524 37.9913 25.0984 36.9144 25.8923 36.1207L28.0837 33.9293L28.155 33.859L29.1736 34.8776L29.1023 34.9479L26.9099 37.1383C26.3861 37.6622 26.0916 38.3731 26.0916 39.1139C26.0916 39.8548 26.386 40.5656 26.9099 41.0895C27.4338 41.6133 28.1447 41.9078 28.8855 41.9078C29.6261 41.9077 30.3363 41.6131 30.8601 41.0895L34.8796 37.0719C35.139 36.8125 35.3457 36.5045 35.4861 36.1656C35.6265 35.8267 35.698 35.4632 35.698 35.0963C35.698 34.7295 35.6265 34.3659 35.4861 34.027C35.3457 33.6881 35.139 33.3801 34.8796 33.1207L34.8093 33.0504L34.8796 32.9801L35.7566 32.1022L35.8269 32.0319L35.8982 32.1022ZM39.116 24.652C40.2387 24.6522 41.3154 25.0982 42.1091 25.8922C42.9028 26.6862 43.3485 27.7628 43.3484 28.8854C43.3482 30.0082 42.9022 31.0857 42.1082 31.8795L39.9167 34.0709L39.8455 34.1412L38.8269 33.1227L38.8982 33.0524L41.0906 30.861C41.6142 30.3372 41.9089 29.627 41.9089 28.8864C41.9089 28.1455 41.6144 27.4346 41.0906 26.9108C40.5667 26.3869 39.8559 26.0924 39.115 26.0924C38.3742 26.0924 37.6632 26.3869 37.1394 26.9108L33.1199 30.9283C32.8605 31.1877 32.6548 31.4957 32.5144 31.8346C32.374 32.1735 32.3015 32.5371 32.3015 32.9039C32.3015 33.2705 32.3742 33.6336 32.5144 33.9723C32.6547 34.3111 32.8606 34.6192 33.1199 34.8785L33.1912 34.9498L33.1199 35.0201L32.2439 35.8981L32.1736 35.9684L32.1023 35.8981C31.7092 35.505 31.3971 35.0377 31.1843 34.524C30.9717 34.0105 30.8621 33.4598 30.8621 32.9039C30.8621 32.3481 30.9716 31.7974 31.1843 31.2838C31.3971 30.7703 31.7093 30.3038 32.1023 29.9108L36.1218 25.8912C36.9159 25.0975 37.9932 24.6518 39.116 24.652Z" fill="#222222" stroke="#222222" stroke-width="0.2"/>
</g>
<defs>
<filter id="filter0_dd_853_2067" x="0" y="0" width="68" height="68" filterUnits="userSpaceOnUse" color-interpolation-filters="sRGB">
<feFlood flood-opacity="0" result="BackgroundImageFix"/>
<feColorMatrix in="SourceAlpha" type="matrix" values="0 0 0 0 0 0 0 0 0 0 0 0 0 0 0 0 0 0 127 0" result="hardAlpha"/>
<feOffset/>
<feGaussianBlur stdDeviation="4"/>
<feComposite in2="hardAlpha" operator="out"/>
<feColorMatrix type="matrix" values="0 0 0 0 0 0 0 0 0 0 0 0 0 0 0 0 0 0 0.08 0"/>
<feBlend mode="normal" in2="BackgroundImageFix" result="effect1_dropShadow_853_2067"/>
<feColorMatrix in="SourceAlpha" type="matrix" values="0 0 0 0 0 0 0 0 0 0 0 0 0 0 0 0 0 0 127 0" result="hardAlpha"/>
<feOffset/>
<feGaussianBlur stdDeviation="4"/>
<feComposite in2="hardAlpha" operator="out"/>
<feColorMatrix type="matrix" values="0 0 0 0 1 0 0 0 0 1 0 0 0 0 1 0 0 0 0.12 0"/>
<feBlend mode="normal" in2="effect1_dropShadow_853_2067" result="effect2_dropShadow_853_2067"/>
<feBlend mode="normal" in="SourceGraphic" in2="effect2_dropShadow_853_2067" result="shape"/>
</filter>
</defs>
</svg>
