<svg width="34" height="34" viewBox="0 0 34 34" fill="none" xmlns="http://www.w3.org/2000/svg">
<rect x="1.5" y="1.5" width="31" height="31" rx="15.5" fill="#2A2A2A"/>
<rect x="1.5" y="1.5" width="31" height="31" rx="15.5" stroke="#0A0A0A" stroke-width="3"/>
<path d="M19.8438 17.5C19.8438 18.1216 19.5968 18.7177 19.1573 19.1573C18.7177 19.5968 18.1216 19.8438 17.5 19.8438C16.8784 19.8438 16.2823 19.5968 15.8427 19.1573C15.4032 18.7177 15.1562 18.1216 15.1562 17.5C15.1562 16.8784 15.4032 16.2823 15.8427 15.8427C16.2823 15.4032 16.8784 15.1562 17.5 15.1562C18.1216 15.1562 18.7177 15.4032 19.1573 15.8427C19.5968 16.2823 19.8438 16.8784 19.8438 17.5Z" stroke="#DEDEDE" stroke-linecap="square"/>
<path d="M23.5938 21.7188H11.4062V13.75H14.8881L15.7591 12.3438H19.2409L20.1119 13.75H23.5938V21.7188Z" stroke="#DEDEDE" stroke-linecap="square"/>
</svg>
